<mxfile host="app.diagrams.net" modified="2022-05-02T10:25:46.325Z" agent="5.0 (Macintosh; Intel Mac OS X 10_15_7) AppleWebKit/605.1.15 (KHTML, like Gecko) Version/15.4 Safari/605.1.15" etag="m0OeQ40ocnH7FzD_MTF3" version="17.5.0" type="github">
  <diagram id="abD9C6VAID09tGScyyFn" name="Page-1">
    <mxGraphModel dx="573" dy="376" grid="0" gridSize="10" guides="1" tooltips="1" connect="1" arrows="1" fold="1" page="1" pageScale="1" pageWidth="827" pageHeight="1169" math="0" shadow="0">
      <root>
        <mxCell id="0" />
        <mxCell id="1" parent="0" />
        <mxCell id="VSm-Urx4y-8b7NhCmJqK-15" style="edgeStyle=none;rounded=0;orthogonalLoop=1;jettySize=auto;html=1;exitX=1;exitY=0.5;exitDx=0;exitDy=0;entryX=0;entryY=0.5;entryDx=0;entryDy=0;endArrow=none;endFill=0;" edge="1" parent="1" source="VSm-Urx4y-8b7NhCmJqK-1" target="VSm-Urx4y-8b7NhCmJqK-5">
          <mxGeometry relative="1" as="geometry" />
        </mxCell>
        <mxCell id="VSm-Urx4y-8b7NhCmJqK-20" value="0,4" style="edgeLabel;html=1;align=center;verticalAlign=middle;resizable=0;points=[];" vertex="1" connectable="0" parent="VSm-Urx4y-8b7NhCmJqK-15">
          <mxGeometry x="0.1495" y="1" relative="1" as="geometry">
            <mxPoint x="-4" y="-10" as="offset" />
          </mxGeometry>
        </mxCell>
        <mxCell id="VSm-Urx4y-8b7NhCmJqK-16" style="edgeStyle=none;rounded=0;orthogonalLoop=1;jettySize=auto;html=1;exitX=1;exitY=0.5;exitDx=0;exitDy=0;entryX=0;entryY=0.5;entryDx=0;entryDy=0;endArrow=none;endFill=0;" edge="1" parent="1" source="VSm-Urx4y-8b7NhCmJqK-1" target="VSm-Urx4y-8b7NhCmJqK-6">
          <mxGeometry relative="1" as="geometry" />
        </mxCell>
        <mxCell id="VSm-Urx4y-8b7NhCmJqK-1" value="A" style="ellipse;whiteSpace=wrap;html=1;aspect=fixed;" vertex="1" parent="1">
          <mxGeometry x="259" y="190" width="25" height="25" as="geometry" />
        </mxCell>
        <mxCell id="VSm-Urx4y-8b7NhCmJqK-17" style="edgeStyle=none;rounded=0;orthogonalLoop=1;jettySize=auto;html=1;exitX=1;exitY=0.5;exitDx=0;exitDy=0;entryX=0;entryY=0.5;entryDx=0;entryDy=0;endArrow=none;endFill=0;" edge="1" parent="1" source="VSm-Urx4y-8b7NhCmJqK-2" target="VSm-Urx4y-8b7NhCmJqK-8">
          <mxGeometry relative="1" as="geometry" />
        </mxCell>
        <mxCell id="VSm-Urx4y-8b7NhCmJqK-18" style="edgeStyle=none;rounded=0;orthogonalLoop=1;jettySize=auto;html=1;exitX=1;exitY=0.5;exitDx=0;exitDy=0;entryX=0;entryY=0.5;entryDx=0;entryDy=0;endArrow=none;endFill=0;" edge="1" parent="1" source="VSm-Urx4y-8b7NhCmJqK-2" target="VSm-Urx4y-8b7NhCmJqK-9">
          <mxGeometry relative="1" as="geometry" />
        </mxCell>
        <mxCell id="VSm-Urx4y-8b7NhCmJqK-21" value="0,6" style="edgeLabel;html=1;align=center;verticalAlign=middle;resizable=0;points=[];" vertex="1" connectable="0" parent="VSm-Urx4y-8b7NhCmJqK-18">
          <mxGeometry x="0.0215" y="-1" relative="1" as="geometry">
            <mxPoint x="-5" y="9" as="offset" />
          </mxGeometry>
        </mxCell>
        <mxCell id="VSm-Urx4y-8b7NhCmJqK-2" value="A" style="ellipse;whiteSpace=wrap;html=1;aspect=fixed;" vertex="1" parent="1">
          <mxGeometry x="259" y="285" width="25" height="25" as="geometry" />
        </mxCell>
        <mxCell id="VSm-Urx4y-8b7NhCmJqK-4" value="" style="endArrow=none;html=1;rounded=0;" edge="1" parent="1">
          <mxGeometry width="50" height="50" relative="1" as="geometry">
            <mxPoint x="266" y="292" as="sourcePoint" />
            <mxPoint x="277" y="292" as="targetPoint" />
          </mxGeometry>
        </mxCell>
        <mxCell id="VSm-Urx4y-8b7NhCmJqK-5" value="B" style="ellipse;whiteSpace=wrap;html=1;aspect=fixed;" vertex="1" parent="1">
          <mxGeometry x="357" y="165" width="25" height="25" as="geometry" />
        </mxCell>
        <mxCell id="VSm-Urx4y-8b7NhCmJqK-6" value="B" style="ellipse;whiteSpace=wrap;html=1;aspect=fixed;" vertex="1" parent="1">
          <mxGeometry x="357" y="215" width="25" height="25" as="geometry" />
        </mxCell>
        <mxCell id="VSm-Urx4y-8b7NhCmJqK-7" value="" style="endArrow=none;html=1;rounded=0;" edge="1" parent="1">
          <mxGeometry width="50" height="50" relative="1" as="geometry">
            <mxPoint x="364" y="222" as="sourcePoint" />
            <mxPoint x="375" y="222" as="targetPoint" />
          </mxGeometry>
        </mxCell>
        <mxCell id="VSm-Urx4y-8b7NhCmJqK-8" value="B" style="ellipse;whiteSpace=wrap;html=1;aspect=fixed;" vertex="1" parent="1">
          <mxGeometry x="357" y="260" width="25" height="25" as="geometry" />
        </mxCell>
        <mxCell id="VSm-Urx4y-8b7NhCmJqK-9" value="B" style="ellipse;whiteSpace=wrap;html=1;aspect=fixed;" vertex="1" parent="1">
          <mxGeometry x="357" y="310" width="25" height="25" as="geometry" />
        </mxCell>
        <mxCell id="VSm-Urx4y-8b7NhCmJqK-10" value="" style="endArrow=none;html=1;rounded=0;" edge="1" parent="1">
          <mxGeometry width="50" height="50" relative="1" as="geometry">
            <mxPoint x="364" y="317" as="sourcePoint" />
            <mxPoint x="375" y="317" as="targetPoint" />
          </mxGeometry>
        </mxCell>
        <mxCell id="VSm-Urx4y-8b7NhCmJqK-11" value="" style="endArrow=none;html=1;rounded=0;entryX=0;entryY=0.5;entryDx=0;entryDy=0;" edge="1" parent="1" target="VSm-Urx4y-8b7NhCmJqK-1">
          <mxGeometry width="50" height="50" relative="1" as="geometry">
            <mxPoint x="196" y="250" as="sourcePoint" />
            <mxPoint x="262" y="203" as="targetPoint" />
          </mxGeometry>
        </mxCell>
        <mxCell id="VSm-Urx4y-8b7NhCmJqK-19" value="0,7" style="edgeLabel;html=1;align=center;verticalAlign=middle;resizable=0;points=[];" vertex="1" connectable="0" parent="VSm-Urx4y-8b7NhCmJqK-11">
          <mxGeometry x="0.1346" y="-1" relative="1" as="geometry">
            <mxPoint x="-10" y="-9" as="offset" />
          </mxGeometry>
        </mxCell>
        <mxCell id="VSm-Urx4y-8b7NhCmJqK-12" value="" style="endArrow=none;html=1;rounded=0;entryX=0;entryY=0.5;entryDx=0;entryDy=0;" edge="1" parent="1" target="VSm-Urx4y-8b7NhCmJqK-2">
          <mxGeometry width="50" height="50" relative="1" as="geometry">
            <mxPoint x="195" y="252" as="sourcePoint" />
            <mxPoint x="272.6611652351621" y="221.33883476483788" as="targetPoint" />
          </mxGeometry>
        </mxCell>
        <mxCell id="VSm-Urx4y-8b7NhCmJqK-22" style="edgeStyle=none;rounded=0;orthogonalLoop=1;jettySize=auto;html=1;exitX=1;exitY=0.5;exitDx=0;exitDy=0;entryX=0;entryY=0.5;entryDx=0;entryDy=0;endArrow=none;endFill=0;" edge="1" parent="1" source="VSm-Urx4y-8b7NhCmJqK-25" target="VSm-Urx4y-8b7NhCmJqK-31">
          <mxGeometry relative="1" as="geometry" />
        </mxCell>
        <mxCell id="VSm-Urx4y-8b7NhCmJqK-23" value="0,4" style="edgeLabel;html=1;align=center;verticalAlign=middle;resizable=0;points=[];" vertex="1" connectable="0" parent="VSm-Urx4y-8b7NhCmJqK-22">
          <mxGeometry x="0.1495" y="1" relative="1" as="geometry">
            <mxPoint x="-4" y="-10" as="offset" />
          </mxGeometry>
        </mxCell>
        <mxCell id="VSm-Urx4y-8b7NhCmJqK-24" style="edgeStyle=none;rounded=0;orthogonalLoop=1;jettySize=auto;html=1;exitX=1;exitY=0.5;exitDx=0;exitDy=0;entryX=0;entryY=0.5;entryDx=0;entryDy=0;endArrow=none;endFill=0;" edge="1" parent="1" source="VSm-Urx4y-8b7NhCmJqK-25" target="VSm-Urx4y-8b7NhCmJqK-32">
          <mxGeometry relative="1" as="geometry" />
        </mxCell>
        <mxCell id="VSm-Urx4y-8b7NhCmJqK-40" value="&lt;font color=&quot;#cc0000&quot;&gt;0,6&lt;/font&gt;" style="edgeLabel;html=1;align=center;verticalAlign=middle;resizable=0;points=[];fontColor=#0000FF;" vertex="1" connectable="0" parent="VSm-Urx4y-8b7NhCmJqK-24">
          <mxGeometry x="-0.0215" y="-1" relative="1" as="geometry">
            <mxPoint y="10" as="offset" />
          </mxGeometry>
        </mxCell>
        <mxCell id="VSm-Urx4y-8b7NhCmJqK-25" value="A" style="ellipse;whiteSpace=wrap;html=1;aspect=fixed;" vertex="1" parent="1">
          <mxGeometry x="509" y="196" width="25" height="25" as="geometry" />
        </mxCell>
        <mxCell id="VSm-Urx4y-8b7NhCmJqK-26" style="edgeStyle=none;rounded=0;orthogonalLoop=1;jettySize=auto;html=1;exitX=1;exitY=0.5;exitDx=0;exitDy=0;entryX=0;entryY=0.5;entryDx=0;entryDy=0;endArrow=none;endFill=0;" edge="1" parent="1" source="VSm-Urx4y-8b7NhCmJqK-29" target="VSm-Urx4y-8b7NhCmJqK-34">
          <mxGeometry relative="1" as="geometry" />
        </mxCell>
        <mxCell id="VSm-Urx4y-8b7NhCmJqK-41" value="0,4" style="edgeLabel;html=1;align=center;verticalAlign=middle;resizable=0;points=[];fontColor=#CC0000;" vertex="1" connectable="0" parent="VSm-Urx4y-8b7NhCmJqK-26">
          <mxGeometry x="0.041" relative="1" as="geometry">
            <mxPoint x="-5" y="-9" as="offset" />
          </mxGeometry>
        </mxCell>
        <mxCell id="VSm-Urx4y-8b7NhCmJqK-27" style="edgeStyle=none;rounded=0;orthogonalLoop=1;jettySize=auto;html=1;exitX=1;exitY=0.5;exitDx=0;exitDy=0;entryX=0;entryY=0.5;entryDx=0;entryDy=0;endArrow=none;endFill=0;" edge="1" parent="1" source="VSm-Urx4y-8b7NhCmJqK-29" target="VSm-Urx4y-8b7NhCmJqK-35">
          <mxGeometry relative="1" as="geometry" />
        </mxCell>
        <mxCell id="VSm-Urx4y-8b7NhCmJqK-28" value="0,6" style="edgeLabel;html=1;align=center;verticalAlign=middle;resizable=0;points=[];" vertex="1" connectable="0" parent="VSm-Urx4y-8b7NhCmJqK-27">
          <mxGeometry x="0.0215" y="-1" relative="1" as="geometry">
            <mxPoint x="-5" y="9" as="offset" />
          </mxGeometry>
        </mxCell>
        <mxCell id="VSm-Urx4y-8b7NhCmJqK-29" value="A" style="ellipse;whiteSpace=wrap;html=1;aspect=fixed;" vertex="1" parent="1">
          <mxGeometry x="509" y="291" width="25" height="25" as="geometry" />
        </mxCell>
        <mxCell id="VSm-Urx4y-8b7NhCmJqK-30" value="" style="endArrow=none;html=1;rounded=0;" edge="1" parent="1">
          <mxGeometry width="50" height="50" relative="1" as="geometry">
            <mxPoint x="516" y="298.0000000000001" as="sourcePoint" />
            <mxPoint x="527" y="298.0000000000001" as="targetPoint" />
          </mxGeometry>
        </mxCell>
        <mxCell id="VSm-Urx4y-8b7NhCmJqK-31" value="B" style="ellipse;whiteSpace=wrap;html=1;aspect=fixed;" vertex="1" parent="1">
          <mxGeometry x="607" y="171" width="25" height="25" as="geometry" />
        </mxCell>
        <mxCell id="VSm-Urx4y-8b7NhCmJqK-32" value="B" style="ellipse;whiteSpace=wrap;html=1;aspect=fixed;" vertex="1" parent="1">
          <mxGeometry x="607" y="221" width="25" height="25" as="geometry" />
        </mxCell>
        <mxCell id="VSm-Urx4y-8b7NhCmJqK-33" value="" style="endArrow=none;html=1;rounded=0;" edge="1" parent="1">
          <mxGeometry width="50" height="50" relative="1" as="geometry">
            <mxPoint x="614" y="228" as="sourcePoint" />
            <mxPoint x="624.9999999999999" y="228" as="targetPoint" />
          </mxGeometry>
        </mxCell>
        <mxCell id="VSm-Urx4y-8b7NhCmJqK-34" value="B" style="ellipse;whiteSpace=wrap;html=1;aspect=fixed;" vertex="1" parent="1">
          <mxGeometry x="607" y="266" width="25" height="25" as="geometry" />
        </mxCell>
        <mxCell id="VSm-Urx4y-8b7NhCmJqK-35" value="B" style="ellipse;whiteSpace=wrap;html=1;aspect=fixed;" vertex="1" parent="1">
          <mxGeometry x="607" y="316" width="25" height="25" as="geometry" />
        </mxCell>
        <mxCell id="VSm-Urx4y-8b7NhCmJqK-36" value="" style="endArrow=none;html=1;rounded=0;" edge="1" parent="1">
          <mxGeometry width="50" height="50" relative="1" as="geometry">
            <mxPoint x="614" y="323.0000000000001" as="sourcePoint" />
            <mxPoint x="624.9999999999999" y="323.0000000000001" as="targetPoint" />
          </mxGeometry>
        </mxCell>
        <mxCell id="VSm-Urx4y-8b7NhCmJqK-37" value="" style="endArrow=none;html=1;rounded=0;entryX=0;entryY=0.5;entryDx=0;entryDy=0;" edge="1" parent="1" target="VSm-Urx4y-8b7NhCmJqK-25">
          <mxGeometry width="50" height="50" relative="1" as="geometry">
            <mxPoint x="446" y="256" as="sourcePoint" />
            <mxPoint x="512" y="209" as="targetPoint" />
          </mxGeometry>
        </mxCell>
        <mxCell id="VSm-Urx4y-8b7NhCmJqK-38" value="0,7" style="edgeLabel;html=1;align=center;verticalAlign=middle;resizable=0;points=[];" vertex="1" connectable="0" parent="VSm-Urx4y-8b7NhCmJqK-37">
          <mxGeometry x="0.1346" y="-1" relative="1" as="geometry">
            <mxPoint x="-10" y="-9" as="offset" />
          </mxGeometry>
        </mxCell>
        <mxCell id="VSm-Urx4y-8b7NhCmJqK-39" value="" style="endArrow=none;html=1;rounded=0;entryX=0;entryY=0.5;entryDx=0;entryDy=0;" edge="1" parent="1" target="VSm-Urx4y-8b7NhCmJqK-29">
          <mxGeometry width="50" height="50" relative="1" as="geometry">
            <mxPoint x="444.9999999999999" y="258.0000000000001" as="sourcePoint" />
            <mxPoint x="522.6611652351621" y="227.33883476483788" as="targetPoint" />
          </mxGeometry>
        </mxCell>
        <mxCell id="VSm-Urx4y-8b7NhCmJqK-42" value="0,3" style="edgeLabel;html=1;align=center;verticalAlign=middle;resizable=0;points=[];fontColor=#CC0000;" vertex="1" connectable="0" parent="VSm-Urx4y-8b7NhCmJqK-39">
          <mxGeometry x="-0.1574" relative="1" as="geometry">
            <mxPoint x="-5" y="10" as="offset" />
          </mxGeometry>
        </mxCell>
        <mxCell id="VSm-Urx4y-8b7NhCmJqK-43" value="0,28" style="text;html=1;strokeColor=none;fillColor=none;align=center;verticalAlign=middle;whiteSpace=wrap;rounded=0;fontColor=#CC0000;" vertex="1" parent="1">
          <mxGeometry x="627" y="166" width="60" height="30" as="geometry" />
        </mxCell>
        <mxCell id="VSm-Urx4y-8b7NhCmJqK-44" value="0,42" style="text;html=1;strokeColor=none;fillColor=none;align=center;verticalAlign=middle;whiteSpace=wrap;rounded=0;fontColor=#CC0000;" vertex="1" parent="1">
          <mxGeometry x="627" y="218.5" width="60" height="30" as="geometry" />
        </mxCell>
        <mxCell id="VSm-Urx4y-8b7NhCmJqK-45" value="0,12" style="text;html=1;strokeColor=none;fillColor=none;align=center;verticalAlign=middle;whiteSpace=wrap;rounded=0;fontColor=#CC0000;" vertex="1" parent="1">
          <mxGeometry x="627" y="263.5" width="60" height="30" as="geometry" />
        </mxCell>
        <mxCell id="VSm-Urx4y-8b7NhCmJqK-46" value="0,18" style="text;html=1;strokeColor=none;fillColor=none;align=center;verticalAlign=middle;whiteSpace=wrap;rounded=0;fontColor=#CC0000;" vertex="1" parent="1">
          <mxGeometry x="627" y="313.5" width="60" height="30" as="geometry" />
        </mxCell>
      </root>
    </mxGraphModel>
  </diagram>
</mxfile>
